# Blender v2.78 (sub 0) OBJ File: 'CHAHIN_PAWN.blend'
# www.blender.org
mtllib CHAHIN_PAWN.mtl
o Pawn_Cube.041
v -0.085754 -0.158125 0.085753
v -0.048689 0.065422 0.048689
v -0.085754 -0.158125 -0.085754
v -0.048689 0.065422 -0.048689
v 0.085754 -0.158125 0.085753
v 0.048689 0.065422 0.048689
v 0.085754 -0.158125 -0.085754
v 0.048689 0.065422 -0.048689
v -0.101031 -0.237864 -0.101031
v -0.101031 -0.237864 0.101030
v 0.101031 -0.237864 -0.101031
v 0.101031 -0.237864 0.101030
v -0.122540 -0.243649 -0.122540
v -0.122540 -0.243649 0.122540
v 0.122540 -0.243649 -0.122540
v 0.122540 -0.243649 0.122540
v -0.122540 -0.340621 -0.122540
v -0.122540 -0.340621 0.122540
v 0.122540 -0.340621 -0.122540
v 0.122540 -0.340621 0.122540
v -0.097729 0.088889 0.097729
v -0.097729 0.088889 -0.097729
v 0.097729 0.088889 -0.097729
v 0.097729 0.088889 0.097729
v -0.041723 0.136466 0.041723
v -0.041723 0.136466 -0.041723
v 0.041723 0.136466 -0.041723
v 0.041723 0.136466 0.041723
v -0.041723 0.338388 0.041723
v -0.041723 0.338388 -0.041723
v 0.041723 0.338388 -0.041723
v 0.041723 0.338388 0.041723
v -0.113362 -0.158125 -0.000000
v -0.064364 0.065422 -0.000000
v 0.113362 -0.158125 -0.000000
v 0.064364 0.065422 -0.000000
v -0.133558 -0.237864 -0.000000
v 0.133558 -0.237864 -0.000000
v -0.161993 -0.243649 -0.000000
v 0.161993 -0.243649 -0.000000
v -0.161993 -0.340621 -0.000000
v 0.161993 -0.340621 -0.000000
v -0.129194 0.088889 -0.000000
v 0.129194 0.088889 -0.000000
v -0.055156 0.136466 -0.000000
v 0.055156 0.136466 -0.000000
v -0.055156 0.338388 -0.000000
v 0.055156 0.338388 -0.000000
v -0.000000 -0.158125 -0.113362
v -0.000000 0.065422 -0.064364
v -0.000000 -0.158125 0.113362
v -0.000000 0.065422 0.064364
v -0.000000 -0.237864 -0.133558
v -0.000000 -0.237864 0.133558
v -0.000000 -0.243649 -0.161993
v -0.000000 -0.243649 0.161993
v -0.000000 -0.340621 -0.161993
v -0.000000 -0.340621 0.161993
v -0.000000 0.088889 -0.129194
v -0.000000 0.088889 0.129194
v -0.000000 0.136466 -0.055156
v -0.000000 0.136466 0.055156
v -0.000000 0.338388 -0.055156
v -0.000000 0.338388 0.055156
v -0.000000 0.338388 -0.000000
v -0.000000 -0.334836 -0.000000
v 0.076984 0.278431 -0.076985
v 0.076984 0.196423 -0.076985
v 0.076984 0.278431 0.076984
v 0.076984 0.196423 0.076984
v -0.076985 0.278431 0.076984
v -0.076985 0.196423 0.076984
v -0.076985 0.278431 -0.076985
v -0.076985 0.196423 -0.076985
v -0.101770 0.196423 -0.000000
v -0.101770 0.278431 -0.000000
v 0.101770 0.196423 -0.000000
v 0.101770 0.278431 -0.000000
v -0.000000 0.196423 -0.101770
v -0.000000 0.278431 -0.101770
v -0.000000 0.196423 0.101770
v -0.000000 0.278431 0.101770
v -0.061583 -0.124205 0.061583
v -0.061583 -0.124205 -0.061583
v 0.061583 -0.124205 -0.061583
v 0.061583 -0.124205 0.061583
v 0.081410 -0.124205 -0.000000
v -0.081410 -0.124205 -0.000000
v -0.000000 -0.124205 0.081410
v -0.000000 -0.124205 -0.081410
vt 0.5043 0.5024
vt 0.4986 0.3129
vt 0.5441 0.3105
vt 0.5619 0.4994
vt 0.7182 0.6069
vt 0.7179 0.7965
vt 0.6619 0.7978
vt 0.6474 0.6086
vt 0.4497 0.1928
vt 0.4554 0.0033
vt 0.5114 0.0033
vt 0.5205 0.1928
vt 0.3921 0.4982
vt 0.4099 0.3096
vt 0.4426 0.3129
vt 0.4335 0.5024
vt 0.5150 0.5385
vt 0.5952 0.5343
vt 0.6162 0.6142
vt 0.5218 0.6191
vt 0.7725 0.4283
vt 0.8180 0.3986
vt 0.8856 0.4301
vt 0.7943 0.4898
vt 0.0296 0.1128
vt 0.0296 0.2184
vt 0.0000 0.2323
vt 0.0000 0.1041
vt 0.4389 0.2289
vt 0.5376 0.2289
vt 0.5484 0.3096
vt 0.4322 0.3096
vt 0.3588 0.5326
vt 0.4164 0.5385
vt 0.4056 0.6191
vt 0.3378 0.6123
vt 0.7279 0.5706
vt 0.6293 0.5729
vt 0.6162 0.4925
vt 0.7324 0.4898
vt 0.9925 0.1048
vt 0.9914 0.2330
vt 0.8856 0.2322
vt 0.8867 0.1040
vt 0.1240 0.2801
vt 0.2403 0.2801
vt 0.2555 0.3071
vt 0.1145 0.3071
vt 0.2137 0.0269
vt 0.0975 0.0269
vt 0.0823 0.0000
vt 0.2232 0.0000
vt 0.3081 0.1943
vt 0.3081 0.0886
vt 0.3378 0.0748
vt 0.3378 0.2030
vt 0.1689 0.4606
vt 0.1145 0.3071
vt 0.2555 0.3071
vt 0.3378 0.4111
vt 0.9339 0.6928
vt 0.9414 0.7968
vt 0.8355 0.7976
vt 0.8280 0.6935
vt 0.9414 0.4898
vt 0.9328 0.5646
vt 0.8269 0.5653
vt 0.8355 0.4905
vt 0.3180 0.7183
vt 0.3217 0.8465
vt 0.2158 0.8489
vt 0.2122 0.7208
vt 0.6162 0.0830
vt 0.6818 0.0000
vt 0.7214 0.0702
vt 0.6934 0.1056
vt 0.8180 0.3477
vt 0.7853 0.3063
vt 0.8200 0.2449
vt 0.8856 0.3279
vt 0.6838 0.3870
vt 0.7165 0.4283
vt 0.6818 0.4898
vt 0.6162 0.4067
vt 0.7293 0.3063
vt 0.6838 0.3360
vt 0.6162 0.3045
vt 0.7075 0.2449
vt 0.8519 0.7976
vt 0.8999 0.7976
vt 0.9155 0.8535
vt 0.8269 0.8535
vt 0.8856 0.1619
vt 0.8200 0.2449
vt 0.7804 0.1747
vt 0.8084 0.1393
vt 0.7075 0.2449
vt 0.6162 0.1852
vt 0.6934 0.1493
vt 0.7324 0.1747
vt 0.7943 0.0000
vt 0.8856 0.0596
vt 0.8084 0.0956
vt 0.7694 0.0702
vt 0.7223 0.8942
vt 0.7038 0.9465
vt 0.6648 0.9210
vt 0.6648 0.8774
vt 0.6157 0.6543
vt 0.6010 0.6958
vt 0.5499 0.6958
vt 0.5771 0.6191
vt 0.0517 0.7514
vt 0.1403 0.7514
vt 0.1246 0.8145
vt 0.0766 0.8145
vt 0.3378 0.7603
vt 0.4097 0.7565
vt 0.4253 0.8195
vt 0.3863 0.8216
vt 0.4983 0.7565
vt 0.4733 0.8195
vt 0.3863 0.6212
vt 0.4253 0.6191
vt 0.4097 0.6751
vt 0.3378 0.6789
vt 0.0766 0.6141
vt 0.1246 0.6141
vt 0.1403 0.6701
vt 0.0517 0.6701
vt 0.6162 0.8632
vt 0.6679 0.7978
vt 0.6928 0.8420
vt 0.9155 0.9349
vt 0.9874 0.9387
vt 0.9388 1.0000
vt 0.8999 0.9980
vt 0.9388 0.7996
vt 0.9874 0.8573
vt 0.7798 0.9111
vt 0.7518 0.9465
vt 0.6157 0.7373
vt 0.5771 0.7724
vt 0.0000 0.5100
vt 0.0000 0.3818
vt 1.0000 0.0007
vt 0.8941 0.0000
vt 0.3588 0.2247
vt 0.3378 0.3046
vt 0.3921 0.1898
vt 0.4099 0.0009
vt 0.0823 0.6141
vt 0.2232 0.6141
vt 0.7798 0.8674
vt 0.7408 0.8420
vt 0.6162 0.9437
vt 0.8269 0.9349
vt 0.8519 0.9980
vt 0.1636 0.6161
vt 0.2122 0.6738
vt 0.4733 0.6191
vt 0.4983 0.6751
vt 0.3217 0.6141
vt 0.2158 0.6166
vt 1.0000 0.3078
vt 0.8941 0.3071
vt 0.3378 0.5393
vt 0.8082 0.5729
vt 0.8269 0.4925
vt 0.5952 0.2231
vt 0.6162 0.3027
vt 0.5441 0.0000
vt 0.5619 0.1886
vt 0.7759 0.6086
vt 0.7635 0.7978
vt 0.5499 0.7617
vt 0.5499 0.6804
vt 0.2122 0.7552
vt 0.0000 0.7567
vt 0.0000 0.6753
vt 0.1636 0.8165
vt 0.8856 0.3876
vt 0.9230 0.3876
vt 0.9554 0.4449
vt 0.9306 0.4674
vt 0.9716 0.4898
vt 0.9981 0.5138
vt 0.9763 0.5751
vt 0.9414 0.5751
vt 0.5832 0.8621
vt 0.5499 0.8466
vt 0.5499 0.7822
vt 0.5832 0.7724
vt 0.9981 0.6365
vt 0.9716 0.6605
vt 0.9306 0.3078
vt 0.9554 0.3303
vn -0.9484 0.0853 -0.3053
vn 0.3053 0.0853 -0.9484
vn 0.9484 0.0853 0.3053
vn -0.3053 0.0853 0.9484
vn -0.9254 0.2344 -0.2979
vn -0.3383 -0.9347 0.1089
vn 0.0641 0.9779 -0.1989
vn 0.9254 0.2344 0.2979
vn -0.2979 0.2344 0.9254
vn 0.2979 0.2344 -0.9254
vn 0.9519 0.0000 0.3065
vn 0.1989 0.9779 0.0641
vn -0.1989 0.9779 -0.0641
vn -0.0641 0.9779 0.1989
vn -0.0236 -0.9994 -0.0236
vn -0.9519 0.0000 -0.3065
vn -0.3065 0.0000 0.9519
vn 0.3065 0.0000 -0.9519
vn 0.5326 0.8288 -0.1715
vn 0.1089 -0.9347 0.3383
vn -0.1089 -0.9347 -0.3383
vn 0.3383 -0.9347 -0.1089
vn 0.2463 -0.5949 -0.7651
vn -0.5326 0.8288 0.1715
vn 0.1715 0.8288 0.5326
vn -0.1715 0.8288 -0.5326
vn 0.0000 1.0000 0.0000
vn -0.2463 -0.5949 0.7651
vn 0.7651 0.5949 0.2463
vn -0.7651 0.5949 -0.2463
vn -0.7651 0.5949 0.2463
vn -0.7651 -0.5949 -0.2463
vn 0.7651 -0.5949 0.2463
vn 0.2463 0.5949 0.7651
vn -0.2463 0.5949 -0.7651
vn -0.2463 -0.5949 -0.7651
vn -0.5326 0.8288 -0.1715
vn 0.2463 -0.5949 0.7651
vn 0.3383 -0.9347 0.1089
vn 0.5326 0.8288 0.1715
vn -0.9519 0.0000 0.3065
vn -0.0236 -0.9994 0.0236
vn -0.1989 0.9779 0.0641
vn 0.1989 0.9779 -0.0641
vn 0.9519 0.0000 -0.3065
vn 0.9254 0.2344 -0.2979
vn -0.3383 -0.9347 -0.1089
vn -0.9254 0.2344 0.2979
vn 0.9484 0.0853 -0.3053
vn -0.9484 0.0853 0.3053
vn 0.0236 -0.9994 0.0236
vn -0.2463 0.5949 0.7651
vn 0.2463 0.5949 -0.7651
vn 0.7651 -0.5949 -0.2463
vn -0.7651 -0.5949 0.2463
vn 0.1715 0.8288 -0.5326
vn -0.1715 0.8288 0.5326
vn 0.1089 -0.9347 -0.3383
vn -0.1089 -0.9347 0.3383
vn -0.3065 0.0000 -0.9519
vn 0.3065 0.0000 0.9519
vn 0.0236 -0.9994 -0.0236
vn 0.0641 0.9779 0.1989
vn -0.2979 0.2344 -0.9254
vn 0.2979 0.2344 0.9254
vn -0.0641 0.9779 -0.1989
vn 0.3053 0.0853 0.9484
vn -0.3053 0.0853 -0.9484
vn 0.7651 0.5949 -0.2463
vn -0.2282 0.6676 -0.7087
vn 0.2282 0.6676 0.7087
vn -0.7087 0.6676 0.2282
vn 0.7087 0.6676 -0.2282
vn -0.2282 0.6676 0.7087
vn 0.7087 0.6676 0.2282
vn 0.2282 0.6676 -0.7087
vn -0.7087 0.6676 -0.2282
usemtl Material.007
s off
f 88/1/1 34/2/1 4/3/1 84/4/1
f 90/5/2 50/6/2 8/7/2 85/8/2
f 87/9/3 36/10/3 6/11/3 86/12/3
f 89/13/4 52/14/4 2/15/4 83/16/4
f 33/17/5 3/18/5 9/19/5 37/20/5
f 34/21/6 2/22/6 21/23/6 43/24/6
f 53/25/7 11/26/7 15/27/7 55/28/7
f 35/29/8 5/30/8 12/31/8 38/32/8
f 51/33/9 1/34/9 10/35/9 54/36/9
f 49/37/10 7/38/10 11/39/10 53/40/10
f 40/41/11 16/42/11 20/43/11 42/44/11
f 38/45/12 12/46/12 16/47/12 40/48/12
f 37/49/13 9/50/13 13/51/13 39/52/13
f 54/53/14 10/54/14 14/55/14 56/56/14
f 66/57/15 42/58/15 20/59/15 58/60/15
f 39/61/16 13/62/16 17/63/16 41/64/16
f 56/65/17 14/66/17 18/67/17 58/68/17
f 55/69/18 15/70/18 19/71/18 57/72/18
f 44/73/19 23/74/19 27/75/19 46/76/19
f 52/77/20 6/78/20 24/79/20 60/80/20
f 50/81/21 4/82/21 22/83/21 59/84/21
f 36/85/22 8/86/22 23/87/22 44/88/22
f 27/89/23 61/90/23 79/91/23 68/92/23
f 43/93/24 21/94/24 25/95/24 45/96/24
f 60/97/25 24/98/25 28/99/25 62/100/25
f 59/101/26 22/102/26 26/103/26 61/104/26
f 65/105/27 47/106/27 29/107/27 64/108/27
f 25/109/28 62/110/28 81/111/28 72/112/28
f 69/113/29 78/114/29 48/115/29 32/116/29
f 73/117/30 76/118/30 47/119/30 30/120/30
f 76/118/31 71/121/31 29/122/31 47/119/31
f 26/123/32 45/124/32 75/125/32 74/126/32
f 28/127/33 46/128/33 77/129/33 70/130/33
f 82/131/34 69/132/34 32/133/34 64/108/34
f 80/134/35 73/135/35 30/136/35 63/137/35
f 61/90/36 26/138/36 74/139/36 79/91/36
f 63/140/27 30/141/27 47/106/27 65/105/27
f 22/102/37 43/93/37 45/96/37 26/103/37
f 62/110/38 28/142/38 70/143/38 81/111/38
f 6/78/39 36/85/39 44/88/39 24/79/39
f 24/98/40 44/73/40 46/76/40 28/99/40
f 14/66/41 39/61/41 41/64/41 18/67/41
f 57/144/42 19/145/42 42/58/42 66/57/42
f 10/54/43 37/49/43 39/52/43 14/55/43
f 11/26/44 38/45/44 40/48/44 15/27/44
f 15/146/45 40/41/45 42/44/45 19/147/45
f 7/148/46 35/29/46 38/32/46 11/149/46
f 4/82/47 34/21/47 43/24/47 22/83/47
f 1/34/48 33/17/48 37/20/48 10/35/48
f 85/150/49 8/151/49 36/10/49 87/9/49
f 83/16/50 2/15/50 34/2/50 88/1/50
f 17/152/51 57/144/51 66/57/51 41/153/51
f 31/154/27 63/140/27 65/105/27 48/155/27
f 71/156/52 82/131/52 64/108/52 29/107/52
f 67/157/53 80/134/53 63/137/53 31/158/53
f 46/128/54 27/159/54 68/160/54 77/129/54
f 45/124/55 25/161/55 72/162/55 75/125/55
f 48/155/27 65/105/27 64/108/27 32/133/27
f 23/74/56 59/101/56 61/104/56 27/75/56
f 21/94/57 60/97/57 62/100/57 25/95/57
f 8/86/58 50/81/58 59/84/58 23/87/58
f 2/22/59 52/77/59 60/80/59 21/23/59
f 13/163/60 55/69/60 57/72/60 17/164/60
f 16/42/61 56/165/61 58/166/61 20/43/61
f 41/153/62 66/57/62 58/60/62 18/167/62
f 12/46/63 54/53/63 56/56/63 16/47/63
f 3/168/64 49/37/64 53/40/64 9/169/64
f 5/30/65 51/170/65 54/171/65 12/31/65
f 9/50/66 53/25/66 55/28/66 13/51/66
f 86/12/67 6/11/67 52/172/67 89/173/67
f 84/174/68 4/175/68 50/6/68 90/5/68
f 80/134/18 67/157/18 68/92/18 79/91/18
f 82/176/17 71/121/17 72/162/17 81/177/17
f 76/118/16 73/117/16 74/126/16 75/125/16
f 78/114/11 69/113/11 70/130/11 77/129/11
f 71/121/41 76/118/41 75/125/41 72/162/41
f 67/178/45 78/114/45 77/129/45 68/160/45
f 73/135/60 80/134/60 79/91/60 74/139/60
f 69/113/61 82/179/61 81/180/61 70/130/61
f 78/114/69 67/178/69 31/181/69 48/115/69
f 3/182/70 84/183/70 90/184/70 49/185/70
f 5/186/71 86/187/71 89/188/71 51/189/71
f 1/34/72 83/16/72 88/1/72 33/17/72
f 7/190/73 85/191/73 87/192/73 35/193/73
f 51/189/74 89/188/74 83/194/74 1/195/74
f 35/29/75 87/9/75 86/12/75 5/30/75
f 49/37/76 90/5/76 85/8/76 7/38/76
f 33/196/77 88/197/77 84/183/77 3/182/77
